<?xml version="1.0" encoding="UTF-8" standalone="no"?>
<svg width="130px" height="130px" viewBox="0 0 130 130" version="1.1" xmlns="http://www.w3.org/2000/svg" xmlns:xlink="http://www.w3.org/1999/xlink">
    <!-- Generator: Sketch 3.7 (28169) - http://www.bohemiancoding.com/sketch -->
    <title>迷</title>
    <desc>Created with Sketch.</desc>
    <defs></defs>
    <g id="Page-1" stroke="none" stroke-width="1" fill="none" fill-rule="evenodd">
        <path d="M130,110 L120,110 L120,90.0000001 L99.9999999,90.0000001 L100,60.0000001 L110,60.0000001 L110,80.0000001 L130,80.0000001 L130,90.0000001 L130,110 Z M40,30.0000001 L40,5.3185488e-08 L50,5.3185488e-08 L50,20.0000001 L70,20.0000001 L70,30.0000001 L40,30.0000001 Z M130,30 L100,30 L100,20 L120,20 L120,10 L100,10 L100,0 L130,0 L130,30 Z M20,30.0000001 L20,10.0000001 L1.25550059e-08,10.0000001 L1.25550059e-08,5.34046762e-08 L30,5.34045625e-08 L30,30.0000001 L20,30.0000001 Z M30,70.0000001 L10.000001,70.0000001 L10.000001,80.0000001 L30,80.0000001 L30,110 L10.000001,110 L10.000001,120 L30,120 L40,120 L40,100 L69.9999963,100 L69.9999963,120 L129.999996,120 L130,130 L60.0000001,130 L60.0000001,110 L50,110 L50,130 L40,130 L30,130 L20,130 L0,130 L0,120 L0,110 L0,100 L20,100 L20,90.0000001 L0,90.0000001 L0,70.0000001 L0,60.0000001 L20.0000001,60.0000001 L20.0000001,50.0000003 L0,50.0000001 L0,20.0000001 L10.0000005,20.0000001 L10.0000008,40.0791796 L30.0000001,40.0791798 L30,70.0000001 Z M79.9999996,69.9999997 L69.9999996,69.9999997 L69.9999996,89.9999997 L39.9999996,89.9999997 L40,59.9999997 L50,59.9999997 L50.0000004,79.9999997 L59.9999996,79.9999997 L59.9999996,59.9999997 L79.9999996,59.9999997 L79.9999996,49.9999997 L40,49.9999997 L40,39.9999997 L79.9999996,39.9999997 L79.9999996,9.9999997 L59.9999996,9.9999997 L59.9999996,6.00995804e-08 L89.9999996,6.00995804e-08 L89.9999996,40.0000001 L130,40.0000001 L130,70.0000001 L120,70.0000001 L120,50.0000001 L89.9999996,50.0000001 L89.9999996,100 L110,100 L110,110 L79.9999996,110 L79.9999996,69.9999997 Z" id="迷" fill="#FF0000"></path>
    </g>
</svg>